<svg width="68" height="20" viewBox="0 0 68 20" fill="none" xmlns="http://www.w3.org/2000/svg">
<path d="M0.048 15.936C0.592 15.504 0.84 15.304 0.792 15.336C2.36 14.04 3.592 12.976 4.488 12.144C5.4 11.312 6.168 10.44 6.792 9.528C7.416 8.616 7.728 7.728 7.728 6.864C7.728 6.208 7.576 5.696 7.272 5.328C6.968 4.96 6.512 4.776 5.904 4.776C5.296 4.776 4.816 5.008 4.464 5.472C4.128 5.92 3.96 6.56 3.96 7.392H0C0.032 6.032 0.32 4.896 0.864 3.984C1.424 3.072 2.152 2.4 3.048 1.968C3.96 1.536 4.968 1.32 6.072 1.32C7.976 1.32 9.408 1.808 10.368 2.784C11.344 3.76 11.832 5.032 11.832 6.6C11.832 8.312 11.248 9.904 10.08 11.376C8.912 12.832 7.424 14.256 5.616 15.648H12.096V18.984H0.048V15.936Z" fill="#161414"/>
<path d="M18.4149 8.064C18.8949 7.328 19.4949 6.752 20.2149 6.336C20.9349 5.904 21.7349 5.688 22.6149 5.688V10.032H21.4869C20.4629 10.032 19.6949 10.256 19.1829 10.704C18.6709 11.136 18.4149 11.904 18.4149 13.008V19.224H14.3109V5.832H18.4149V8.064Z" fill="#161414"/>
<path d="M26.6406 4.44C25.9206 4.44 25.3286 4.232 24.8646 3.816C24.4166 3.384 24.1926 2.856 24.1926 2.232C24.1926 1.592 24.4166 1.064 24.8646 0.648C25.3286 0.216 25.9206 0 26.6406 0C27.3446 0 27.9206 0.216 28.3686 0.648C28.8326 1.064 29.0646 1.592 29.0646 2.232C29.0646 2.856 28.8326 3.384 28.3686 3.816C27.9206 4.232 27.3446 4.44 26.6406 4.44ZM28.6806 5.832V19.224H24.5766V5.832H28.6806Z" fill="#161414"/>
<path d="M37.1027 19.416C35.9347 19.416 34.8947 19.216 33.9827 18.816C33.0707 18.416 32.3507 17.872 31.8227 17.184C31.2947 16.48 30.9987 15.696 30.9347 14.832H34.9907C35.0387 15.296 35.2547 15.672 35.6387 15.96C36.0227 16.248 36.4947 16.392 37.0547 16.392C37.5667 16.392 37.9587 16.296 38.2307 16.104C38.5187 15.896 38.6627 15.632 38.6627 15.312C38.6627 14.928 38.4627 14.648 38.0627 14.472C37.6627 14.28 37.0147 14.072 36.1187 13.848C35.1587 13.624 34.3587 13.392 33.7187 13.152C33.0787 12.896 32.5267 12.504 32.0627 11.976C31.5987 11.432 31.3667 10.704 31.3667 9.792C31.3667 9.024 31.5747 8.328 31.9907 7.704C32.4227 7.064 33.0467 6.56 33.8627 6.192C34.6947 5.824 35.6787 5.64 36.8147 5.64C38.4947 5.64 39.8147 6.056 40.7747 6.888C41.7507 7.72 42.3107 8.824 42.4547 10.2H38.6627C38.5987 9.736 38.3907 9.368 38.0387 9.096C37.7027 8.824 37.2547 8.688 36.6947 8.688C36.2147 8.688 35.8467 8.784 35.5907 8.976C35.3347 9.152 35.2067 9.4 35.2067 9.72C35.2067 10.104 35.4067 10.392 35.8067 10.584C36.2227 10.776 36.8627 10.968 37.7267 11.16C38.7187 11.416 39.5267 11.672 40.1507 11.928C40.7747 12.168 41.3187 12.568 41.7827 13.128C42.2627 13.672 42.5107 14.408 42.5267 15.336C42.5267 16.12 42.3027 16.824 41.8547 17.448C41.4227 18.056 40.7907 18.536 39.9587 18.888C39.1427 19.24 38.1907 19.416 37.1027 19.416Z" fill="#161414"/>
<path d="M62.1255 5.688C63.7895 5.688 65.1095 6.192 66.0855 7.2C67.0775 8.208 67.5735 9.608 67.5735 11.4V19.224H63.4935V11.952C63.4935 11.088 63.2615 10.424 62.7975 9.96C62.3495 9.48 61.7255 9.24 60.9255 9.24C60.1255 9.24 59.4935 9.48 59.0295 9.96C58.5815 10.424 58.3575 11.088 58.3575 11.952V19.224H54.2775V11.952C54.2775 11.088 54.0455 10.424 53.5815 9.96C53.1335 9.48 52.5095 9.24 51.7095 9.24C50.9095 9.24 50.2775 9.48 49.8135 9.96C49.3655 10.424 49.1415 11.088 49.1415 11.952V19.224H45.0375V5.832H49.1415V7.512C49.5575 6.952 50.1015 6.512 50.7735 6.192C51.4455 5.856 52.2055 5.688 53.0535 5.688C54.0615 5.688 54.9575 5.904 55.7415 6.336C56.5415 6.768 57.1655 7.384 57.6135 8.184C58.0775 7.448 58.7095 6.848 59.5095 6.384C60.3095 5.92 61.1815 5.688 62.1255 5.688Z" fill="#161414"/>
</svg>
